<?xml version="1.0" encoding="UTF-8" standalone="no"?><!DOCTYPE svg PUBLIC "-//W3C//DTD SVG 1.1//EN" "http://www.w3.org/Graphics/SVG/1.1/DTD/svg11.dtd"><!-- Generated by graphviz version 2.40.1 (20161225.0304)
 --><!-- Title: DependenciesGraph Pages: 1 --><svg xmlns="http://www.w3.org/2000/svg" xmlns:xlink="http://www.w3.org/1999/xlink" width="2189pt" height="444pt" viewBox="0.00 0.00 2188.68 444.00">
<g id="graph0" class="graph" transform="scale(1 1) rotate(0) translate(4 440)">
<title>DependenciesGraph</title>
<polygon fill="#ffffff" stroke="transparent" points="-4,4 -4,-440 2184.682,-440 2184.682,4 -4,4"/>
<!-- /Users/daniellyons/Developer/My Swift Packages/SPM_AddDependencies_CLI -->
<g id="node1" class="node">
<title>/Users/daniellyons/Developer/My Swift Packages/SPM_AddDependencies_CLI</title>
<polygon fill="none" stroke="#000000" points="1388.9277,-436.2014 922.5009,-436.2014 922.5009,-377.3986 1388.9277,-377.3986 1388.9277,-436.2014"/>
<text text-anchor="middle" x="1155.7143" y="-419.4" font-family="Times,serif" font-size="14.00" fill="#000000">spm_adddependencies_cli</text>
<text text-anchor="middle" x="1155.7143" y="-402.6" font-family="Times,serif" font-size="14.00" fill="#000000">/Users/daniellyons/Developer/My Swift Packages/SPM_AddDependencies_CLI</text>
<text text-anchor="middle" x="1155.7143" y="-385.8" font-family="Times,serif" font-size="14.00" fill="#000000">unspecified</text>
</g>
<!-- https://github.com/pointfreeco/swift&#45;composable&#45;architecture.git -->
<g id="node2" class="node">
<title>https://github.com/pointfreeco/swift-composable-architecture.git</title>
<polygon fill="none" stroke="#000000" points="1345.0569,-341.8014 966.3717,-341.8014 966.3717,-282.9986 1345.0569,-282.9986 1345.0569,-341.8014"/>
<text text-anchor="middle" x="1155.7143" y="-325" font-family="Times,serif" font-size="14.00" fill="#000000">swift-composable-architecture</text>
<text text-anchor="middle" x="1155.7143" y="-308.2" font-family="Times,serif" font-size="14.00" fill="#000000">https://github.com/pointfreeco/swift-composable-architecture.git</text>
<text text-anchor="middle" x="1155.7143" y="-291.4" font-family="Times,serif" font-size="14.00" fill="#000000">1.15.0</text>
</g>
<!-- /Users/daniellyons/Developer/My Swift Packages/SPM_AddDependencies_CLI&#45;&gt;https://github.com/pointfreeco/swift&#45;composable&#45;architecture.git -->
<g id="edge1" class="edge">
<title>/Users/daniellyons/Developer/My Swift Packages/SPM_AddDependencies_CLI-&gt;https://github.com/pointfreeco/swift-composable-architecture.git</title>
<path fill="none" stroke="#000000" d="M1155.7143,-377.4487C1155.7143,-369.3682 1155.7143,-360.4692 1155.7143,-351.9162"/>
<polygon fill="#000000" stroke="#000000" points="1159.2144,-351.7331 1155.7143,-341.7331 1152.2144,-351.7332 1159.2144,-351.7331"/>
</g>
<!-- https://github.com/apple/swift&#45;collections -->
<g id="node3" class="node">
<title>https://github.com/apple/swift-collections</title>
<polygon fill="none" stroke="#000000" points="379.4039,-153.0014 130.0247,-153.0014 130.0247,-94.1986 379.4039,-94.1986 379.4039,-153.0014"/>
<text text-anchor="middle" x="254.7143" y="-136.2" font-family="Times,serif" font-size="14.00" fill="#000000">swift-collections</text>
<text text-anchor="middle" x="254.7143" y="-119.4" font-family="Times,serif" font-size="14.00" fill="#000000">https://github.com/apple/swift-collections</text>
<text text-anchor="middle" x="254.7143" y="-102.6" font-family="Times,serif" font-size="14.00" fill="#000000">1.1.4</text>
</g>
<!-- https://github.com/pointfreeco/swift&#45;composable&#45;architecture.git&#45;&gt;https://github.com/apple/swift&#45;collections -->
<g id="edge2" class="edge">
<title>https://github.com/pointfreeco/swift-composable-architecture.git-&gt;https://github.com/apple/swift-collections</title>
<path fill="none" stroke="#000000" d="M966.1409,-304.3154C756.7249,-294.1074 442.4718,-274.5202 393.7143,-247.2 365.5953,-231.4441 373.9357,-211.1538 350.7143,-188.8 339.5221,-178.0259 326.3625,-167.827 313.4361,-158.8342"/>
<polygon fill="#000000" stroke="#000000" points="315.2376,-155.8268 304.9984,-153.1049 311.3053,-161.618 315.2376,-155.8268"/>
</g>
<!-- https://github.com/pointfreeco/combine&#45;schedulers -->
<g id="node4" class="node">
<title>https://github.com/pointfreeco/combine-schedulers</title>
<polygon fill="none" stroke="#000000" points="737.481,-153.0014 435.9476,-153.0014 435.9476,-94.1986 737.481,-94.1986 737.481,-153.0014"/>
<text text-anchor="middle" x="586.7143" y="-136.2" font-family="Times,serif" font-size="14.00" fill="#000000">combine-schedulers</text>
<text text-anchor="middle" x="586.7143" y="-119.4" font-family="Times,serif" font-size="14.00" fill="#000000">https://github.com/pointfreeco/combine-schedulers</text>
<text text-anchor="middle" x="586.7143" y="-102.6" font-family="Times,serif" font-size="14.00" fill="#000000">1.0.2</text>
</g>
<!-- https://github.com/pointfreeco/swift&#45;composable&#45;architecture.git&#45;&gt;https://github.com/pointfreeco/combine&#45;schedulers -->
<g id="edge3" class="edge">
<title>https://github.com/pointfreeco/swift-composable-architecture.git-&gt;https://github.com/pointfreeco/combine-schedulers</title>
<path fill="none" stroke="#000000" d="M966.2873,-287.5385C915.2387,-277.8738 860.6266,-264.7679 811.7143,-247.2 748.9936,-224.6725 682.7785,-186.292 638.5502,-158.2642"/>
<polygon fill="#000000" stroke="#000000" points="640.3165,-155.2393 630.0052,-152.8044 636.5475,-161.138 640.3165,-155.2393"/>
</g>
<!-- https://github.com/pointfreeco/swift&#45;concurrency&#45;extras -->
<g id="node5" class="node">
<title>https://github.com/pointfreeco/swift-concurrency-extras</title>
<polygon fill="none" stroke="#000000" points="930.4446,-58.6014 600.984,-58.6014 600.984,.2014 930.4446,.2014 930.4446,-58.6014"/>
<text text-anchor="middle" x="765.7143" y="-41.8" font-family="Times,serif" font-size="14.00" fill="#000000">swift-concurrency-extras</text>
<text text-anchor="middle" x="765.7143" y="-25" font-family="Times,serif" font-size="14.00" fill="#000000">https://github.com/pointfreeco/swift-concurrency-extras</text>
<text text-anchor="middle" x="765.7143" y="-8.2" font-family="Times,serif" font-size="14.00" fill="#000000">1.2.0</text>
</g>
<!-- https://github.com/pointfreeco/swift&#45;composable&#45;architecture.git&#45;&gt;https://github.com/pointfreeco/swift&#45;concurrency&#45;extras -->
<g id="edge9" class="edge">
<title>https://github.com/pointfreeco/swift-composable-architecture.git-&gt;https://github.com/pointfreeco/swift-concurrency-extras</title>
<path fill="none" stroke="#000000" d="M966.3769,-299.2246C771.517,-281.0288 487.9778,-239.9923 426.7143,-152.8 411.7924,-131.5626 410.1848,-114.4116 426.7143,-94.4 448.6773,-67.8103 519.4058,-51.9508 590.6151,-42.5476"/>
<polygon fill="#000000" stroke="#000000" points="591.1859,-46.0032 600.6612,-41.2632 590.2981,-39.0597 591.1859,-46.0032"/>
</g>
<!-- https://github.com/pointfreeco/xctest&#45;dynamic&#45;overlay -->
<g id="node6" class="node">
<title>https://github.com/pointfreeco/xctest-dynamic-overlay</title>
<polygon fill="none" stroke="#000000" points="1354.6927,-58.6014 1032.7359,-58.6014 1032.7359,.2014 1354.6927,.2014 1354.6927,-58.6014"/>
<text text-anchor="middle" x="1193.7143" y="-41.8" font-family="Times,serif" font-size="14.00" fill="#000000">xctest-dynamic-overlay</text>
<text text-anchor="middle" x="1193.7143" y="-25" font-family="Times,serif" font-size="14.00" fill="#000000">https://github.com/pointfreeco/xctest-dynamic-overlay</text>
<text text-anchor="middle" x="1193.7143" y="-8.2" font-family="Times,serif" font-size="14.00" fill="#000000">1.4.2</text>
</g>
<!-- https://github.com/pointfreeco/swift&#45;composable&#45;architecture.git&#45;&gt;https://github.com/pointfreeco/xctest&#45;dynamic&#45;overlay -->
<g id="edge32" class="edge">
<title>https://github.com/pointfreeco/swift-composable-architecture.git-&gt;https://github.com/pointfreeco/xctest-dynamic-overlay</title>
<path fill="none" stroke="#000000" d="M1159.6378,-283.1593C1166.4929,-232.0712 1180.6554,-126.523 1188.3891,-68.8864"/>
<polygon fill="#000000" stroke="#000000" points="1191.8941,-69.0826 1189.7552,-58.7059 1184.9563,-68.1516 1191.8941,-69.0826"/>
</g>
<!-- https://github.com/pointfreeco/swift&#45;case&#45;paths -->
<g id="node7" class="node">
<title>https://github.com/pointfreeco/swift-case-paths</title>
<polygon fill="none" stroke="#000000" points="2157.9782,-153.0014 1877.4504,-153.0014 1877.4504,-94.1986 2157.9782,-94.1986 2157.9782,-153.0014"/>
<text text-anchor="middle" x="2017.7143" y="-136.2" font-family="Times,serif" font-size="14.00" fill="#000000">swift-case-paths</text>
<text text-anchor="middle" x="2017.7143" y="-119.4" font-family="Times,serif" font-size="14.00" fill="#000000">https://github.com/pointfreeco/swift-case-paths</text>
<text text-anchor="middle" x="2017.7143" y="-102.6" font-family="Times,serif" font-size="14.00" fill="#000000">1.5.6</text>
</g>
<!-- https://github.com/pointfreeco/swift&#45;composable&#45;architecture.git&#45;&gt;https://github.com/pointfreeco/swift&#45;case&#45;paths -->
<g id="edge6" class="edge">
<title>https://github.com/pointfreeco/swift-composable-architecture.git-&gt;https://github.com/pointfreeco/swift-case-paths</title>
<path fill="none" stroke="#000000" d="M1345.0202,-286.8302C1414.9954,-276.2084 1494.7674,-262.7162 1566.7143,-247.2 1686.7396,-221.3152 1822.3558,-182.876 1913.2503,-155.7504"/>
<polygon fill="#000000" stroke="#000000" points="1914.4281,-159.0514 1923.005,-152.8315 1912.4214,-152.3452 1914.4281,-159.0514"/>
</g>
<!-- https://github.com/swiftlang/swift&#45;syntax -->
<g id="node8" class="node">
<title>https://github.com/swiftlang/swift-syntax</title>
<polygon fill="none" stroke="#000000" points="1991.5814,-58.6014 1743.8472,-58.6014 1743.8472,.2014 1991.5814,.2014 1991.5814,-58.6014"/>
<text text-anchor="middle" x="1867.7143" y="-41.8" font-family="Times,serif" font-size="14.00" fill="#000000">swift-syntax</text>
<text text-anchor="middle" x="1867.7143" y="-25" font-family="Times,serif" font-size="14.00" fill="#000000">https://github.com/swiftlang/swift-syntax</text>
<text text-anchor="middle" x="1867.7143" y="-8.2" font-family="Times,serif" font-size="14.00" fill="#000000">600.0.1</text>
</g>
<!-- https://github.com/pointfreeco/swift&#45;composable&#45;architecture.git&#45;&gt;https://github.com/swiftlang/swift&#45;syntax -->
<g id="edge33" class="edge">
<title>https://github.com/pointfreeco/swift-composable-architecture.git-&gt;https://github.com/swiftlang/swift-syntax</title>
<path fill="none" stroke="#000000" d="M1345.1551,-295.9832C1623.3745,-269.8948 2115.2768,-215.466 2166.7143,-152.8 2221.0463,-86.6076 2104.6211,-55.4188 2001.553,-41.0177"/>
<polygon fill="#000000" stroke="#000000" points="2002.0053,-37.5471 1991.6265,-39.6759 2001.0675,-44.484 2002.0053,-37.5471"/>
</g>
<!-- https://github.com/pointfreeco/swift&#45;custom&#45;dump -->
<g id="node9" class="node">
<title>https://github.com/pointfreeco/swift-custom-dump</title>
<polygon fill="none" stroke="#000000" points="1559.6712,-153.0014 1259.7574,-153.0014 1259.7574,-94.1986 1559.6712,-94.1986 1559.6712,-153.0014"/>
<text text-anchor="middle" x="1409.7143" y="-136.2" font-family="Times,serif" font-size="14.00" fill="#000000">swift-custom-dump</text>
<text text-anchor="middle" x="1409.7143" y="-119.4" font-family="Times,serif" font-size="14.00" fill="#000000">https://github.com/pointfreeco/swift-custom-dump</text>
<text text-anchor="middle" x="1409.7143" y="-102.6" font-family="Times,serif" font-size="14.00" fill="#000000">1.3.3</text>
</g>
<!-- https://github.com/pointfreeco/swift&#45;composable&#45;architecture.git&#45;&gt;https://github.com/pointfreeco/swift&#45;custom&#45;dump -->
<g id="edge10" class="edge">
<title>https://github.com/pointfreeco/swift-composable-architecture.git-&gt;https://github.com/pointfreeco/swift-custom-dump</title>
<path fill="none" stroke="#000000" d="M1345.0802,-293.9586C1403.2014,-284.1274 1456.663,-269.314 1474.7143,-247.2 1491.1275,-227.0928 1484.6286,-212.7874 1474.7143,-188.8 1470.37,-178.2891 1463.4189,-168.584 1455.6458,-160.0489"/>
<polygon fill="#000000" stroke="#000000" points="1458.1309,-157.584 1448.6482,-152.8586 1453.1144,-162.4661 1458.1309,-157.584"/>
</g>
<!-- https://github.com/pointfreeco/swift&#45;dependencies -->
<g id="node10" class="node">
<title>https://github.com/pointfreeco/swift-dependencies</title>
<polygon fill="none" stroke="#000000" points="1118.5875,-247.4014 820.8411,-247.4014 820.8411,-188.5986 1118.5875,-188.5986 1118.5875,-247.4014"/>
<text text-anchor="middle" x="969.7143" y="-230.6" font-family="Times,serif" font-size="14.00" fill="#000000">swift-dependencies</text>
<text text-anchor="middle" x="969.7143" y="-213.8" font-family="Times,serif" font-size="14.00" fill="#000000">https://github.com/pointfreeco/swift-dependencies</text>
<text text-anchor="middle" x="969.7143" y="-197" font-family="Times,serif" font-size="14.00" fill="#000000">1.4.1</text>
</g>
<!-- https://github.com/pointfreeco/swift&#45;composable&#45;architecture.git&#45;&gt;https://github.com/pointfreeco/swift&#45;dependencies -->
<g id="edge12" class="edge">
<title>https://github.com/pointfreeco/swift-composable-architecture.git-&gt;https://github.com/pointfreeco/swift-dependencies</title>
<path fill="none" stroke="#000000" d="M1098.1365,-283.1777C1078.6144,-273.2697 1056.644,-262.1191 1036.4685,-251.8795"/>
<polygon fill="#000000" stroke="#000000" points="1037.8415,-248.6515 1027.3402,-247.2467 1034.6735,-254.8935 1037.8415,-248.6515"/>
</g>
<!-- https://github.com/pointfreeco/swift&#45;identified&#45;collections -->
<g id="node12" class="node">
<title>https://github.com/pointfreeco/swift-identified-collections</title>
<polygon fill="none" stroke="#000000" points="341.6432,-247.4014 -.2146,-247.4014 -.2146,-188.5986 341.6432,-188.5986 341.6432,-247.4014"/>
<text text-anchor="middle" x="170.7143" y="-230.6" font-family="Times,serif" font-size="14.00" fill="#000000">swift-identified-collections</text>
<text text-anchor="middle" x="170.7143" y="-213.8" font-family="Times,serif" font-size="14.00" fill="#000000">https://github.com/pointfreeco/swift-identified-collections</text>
<text text-anchor="middle" x="170.7143" y="-197" font-family="Times,serif" font-size="14.00" fill="#000000">1.1.0</text>
</g>
<!-- https://github.com/pointfreeco/swift&#45;composable&#45;architecture.git&#45;&gt;https://github.com/pointfreeco/swift&#45;identified&#45;collections -->
<g id="edge20" class="edge">
<title>https://github.com/pointfreeco/swift-composable-architecture.git-&gt;https://github.com/pointfreeco/swift-identified-collections</title>
<path fill="none" stroke="#000000" d="M966.1952,-300.9856C803.8414,-290.244 563.9536,-272.084 355.7143,-247.2 354.3976,-247.0427 353.076,-246.8829 351.7498,-246.7209"/>
<polygon fill="#000000" stroke="#000000" points="351.8603,-243.2074 341.5025,-245.436 350.9894,-250.1531 351.8603,-243.2074"/>
</g>
<!-- https://github.com/pointfreeco/swift&#45;navigation -->
<g id="node13" class="node">
<title>https://github.com/pointfreeco/swift-navigation</title>
<polygon fill="none" stroke="#000000" points="1465.2806,-247.4014 1184.148,-247.4014 1184.148,-188.5986 1465.2806,-188.5986 1465.2806,-247.4014"/>
<text text-anchor="middle" x="1324.7143" y="-230.6" font-family="Times,serif" font-size="14.00" fill="#000000">swift-navigation</text>
<text text-anchor="middle" x="1324.7143" y="-213.8" font-family="Times,serif" font-size="14.00" fill="#000000">https://github.com/pointfreeco/swift-navigation</text>
<text text-anchor="middle" x="1324.7143" y="-197" font-family="Times,serif" font-size="14.00" fill="#000000">2.2.1</text>
</g>
<!-- https://github.com/pointfreeco/swift&#45;composable&#45;architecture.git&#45;&gt;https://github.com/pointfreeco/swift&#45;navigation -->
<g id="edge22" class="edge">
<title>https://github.com/pointfreeco/swift-composable-architecture.git-&gt;https://github.com/pointfreeco/swift-navigation</title>
<path fill="none" stroke="#000000" d="M1208.2606,-283.0487C1225.7471,-273.2811 1245.3747,-262.3175 1263.4615,-252.2146"/>
<polygon fill="#000000" stroke="#000000" points="1265.177,-255.2654 1272.2005,-247.3331 1261.7634,-249.1542 1265.177,-255.2654"/>
</g>
<!-- https://github.com/pointfreeco/swift&#45;perception -->
<g id="node14" class="node">
<title>https://github.com/pointfreeco/swift-perception</title>
<polygon fill="none" stroke="#000000" points="1859.2653,-153.0014 1578.1633,-153.0014 1578.1633,-94.1986 1859.2653,-94.1986 1859.2653,-153.0014"/>
<text text-anchor="middle" x="1718.7143" y="-136.2" font-family="Times,serif" font-size="14.00" fill="#000000">swift-perception</text>
<text text-anchor="middle" x="1718.7143" y="-119.4" font-family="Times,serif" font-size="14.00" fill="#000000">https://github.com/pointfreeco/swift-perception</text>
<text text-anchor="middle" x="1718.7143" y="-102.6" font-family="Times,serif" font-size="14.00" fill="#000000">1.3.5</text>
</g>
<!-- https://github.com/pointfreeco/swift&#45;composable&#45;architecture.git&#45;&gt;https://github.com/pointfreeco/swift&#45;perception -->
<g id="edge31" class="edge">
<title>https://github.com/pointfreeco/swift-composable-architecture.git-&gt;https://github.com/pointfreeco/swift-perception</title>
<path fill="none" stroke="#000000" d="M1344.9192,-286.6511C1394.1875,-277.0485 1446.6371,-264.1951 1493.7143,-247.2 1556.2018,-224.6417 1622.2045,-186.4478 1666.4427,-158.475"/>
<polygon fill="#000000" stroke="#000000" points="1668.4418,-161.3513 1674.9927,-153.0243 1664.6789,-155.4487 1668.4418,-161.3513"/>
</g>
<!-- https://github.com/pointfreeco/combine&#45;schedulers&#45;&gt;https://github.com/pointfreeco/swift&#45;concurrency&#45;extras -->
<g id="edge4" class="edge">
<title>https://github.com/pointfreeco/combine-schedulers-&gt;https://github.com/pointfreeco/swift-concurrency-extras</title>
<path fill="none" stroke="#000000" d="M642.3698,-94.2487C660.9753,-84.4367 681.8691,-73.4178 701.0982,-63.2769"/>
<polygon fill="#000000" stroke="#000000" points="702.8806,-66.2938 710.0932,-58.5331 699.6152,-60.1021 702.8806,-66.2938"/>
</g>
<!-- https://github.com/pointfreeco/combine&#45;schedulers&#45;&gt;https://github.com/pointfreeco/xctest&#45;dynamic&#45;overlay -->
<g id="edge5" class="edge">
<title>https://github.com/pointfreeco/combine-schedulers-&gt;https://github.com/pointfreeco/xctest-dynamic-overlay</title>
<path fill="none" stroke="#000000" d="M737.5392,-100.1439C824.0075,-86.6964 932.8324,-69.7721 1022.5024,-55.8267"/>
<polygon fill="#000000" stroke="#000000" points="1023.1606,-59.2665 1032.504,-54.2713 1022.0849,-52.3496 1023.1606,-59.2665"/>
</g>
<!-- https://github.com/pointfreeco/swift&#45;case&#45;paths&#45;&gt;https://github.com/pointfreeco/xctest&#45;dynamic&#45;overlay -->
<g id="edge8" class="edge">
<title>https://github.com/pointfreeco/swift-case-paths-&gt;https://github.com/pointfreeco/xctest-dynamic-overlay</title>
<path fill="none" stroke="#000000" d="M1877.3998,-95.7076C1874.4813,-95.2553 1871.5835,-94.8187 1868.7143,-94.4 1774.9549,-80.7177 1532.2479,-58.4652 1364.9634,-43.8288"/>
<polygon fill="#000000" stroke="#000000" points="1365.0743,-40.3252 1354.8076,-42.9414 1364.465,-47.2986 1365.0743,-40.3252"/>
</g>
<!-- https://github.com/pointfreeco/swift&#45;case&#45;paths&#45;&gt;https://github.com/swiftlang/swift&#45;syntax -->
<g id="edge7" class="edge">
<title>https://github.com/pointfreeco/swift-case-paths-&gt;https://github.com/swiftlang/swift-syntax</title>
<path fill="none" stroke="#000000" d="M1971.0756,-94.2487C1955.8372,-84.6587 1938.7669,-73.9158 1922.9577,-63.9665"/>
<polygon fill="#000000" stroke="#000000" points="1924.6519,-60.8973 1914.3242,-58.5331 1920.9234,-66.8217 1924.6519,-60.8973"/>
</g>
<!-- https://github.com/pointfreeco/swift&#45;custom&#45;dump&#45;&gt;https://github.com/pointfreeco/xctest&#45;dynamic&#45;overlay -->
<g id="edge11" class="edge">
<title>https://github.com/pointfreeco/swift-custom-dump-&gt;https://github.com/pointfreeco/xctest-dynamic-overlay</title>
<path fill="none" stroke="#000000" d="M1342.8498,-94.3777C1319.7704,-84.2912 1293.7445,-72.9169 1269.9709,-62.5269"/>
<polygon fill="#000000" stroke="#000000" points="1271.1995,-59.2443 1260.6347,-58.4467 1268.3962,-65.6585 1271.1995,-59.2443"/>
</g>
<!-- https://github.com/pointfreeco/swift&#45;dependencies&#45;&gt;https://github.com/pointfreeco/combine&#45;schedulers -->
<g id="edge13" class="edge">
<title>https://github.com/pointfreeco/swift-dependencies-&gt;https://github.com/pointfreeco/combine-schedulers</title>
<path fill="none" stroke="#000000" d="M851.1536,-188.7777C808.0576,-178.1556 759.1673,-166.1054 715.2488,-155.2806"/>
<polygon fill="#000000" stroke="#000000" points="715.9212,-151.8416 705.3741,-152.8467 714.2459,-158.6382 715.9212,-151.8416"/>
</g>
<!-- https://github.com/pointfreeco/swift&#45;dependencies&#45;&gt;https://github.com/pointfreeco/swift&#45;concurrency&#45;extras -->
<g id="edge17" class="edge">
<title>https://github.com/pointfreeco/swift-dependencies-&gt;https://github.com/pointfreeco/swift-concurrency-extras</title>
<path fill="none" stroke="#000000" d="M837.9885,-188.7399C819.7293,-179.7819 802.7839,-168.0817 789.7143,-152.8 770.0224,-129.7752 764.6183,-95.4517 763.8031,-68.8132"/>
<polygon fill="#000000" stroke="#000000" points="767.3014,-68.6189 763.6983,-58.6556 760.3018,-68.6912 767.3014,-68.6189"/>
</g>
<!-- https://github.com/pointfreeco/swift&#45;dependencies&#45;&gt;https://github.com/pointfreeco/xctest&#45;dynamic&#45;overlay -->
<g id="edge18" class="edge">
<title>https://github.com/pointfreeco/swift-dependencies-&gt;https://github.com/pointfreeco/xctest-dynamic-overlay</title>
<path fill="none" stroke="#000000" d="M1042.3514,-188.7051C1061.8074,-178.9447 1082.0454,-166.8986 1098.7143,-152.8 1123.3244,-131.9849 1122.1063,-119.9822 1141.7143,-94.4 1148.6601,-85.3379 1156.261,-75.672 1163.4544,-66.6341"/>
<polygon fill="#000000" stroke="#000000" points="1166.4086,-68.5436 1169.9154,-58.546 1160.9394,-64.1746 1166.4086,-68.5436"/>
</g>
<!-- https://github.com/pointfreeco/swift&#45;dependencies&#45;&gt;https://github.com/swiftlang/swift&#45;syntax -->
<g id="edge19" class="edge">
<title>https://github.com/pointfreeco/swift-dependencies-&gt;https://github.com/swiftlang/swift-syntax</title>
<path fill="none" stroke="#000000" d="M1047.4481,-188.6508C1074.9148,-177.8718 1105.8858,-165.2502 1133.7143,-152.8 1186.7649,-129.0656 1194.9265,-110.6913 1250.7143,-94.4 1338.2935,-68.8248 1580.1478,-48.5468 1733.7461,-37.7546"/>
<polygon fill="#000000" stroke="#000000" points="1734.0012,-41.2454 1743.7332,-37.0575 1733.5137,-34.2624 1734.0012,-41.2454"/>
</g>
<!-- https://github.com/pointfreeco/swift&#45;clocks -->
<g id="node11" class="node">
<title>https://github.com/pointfreeco/swift-clocks</title>
<polygon fill="none" stroke="#000000" points="1089.9438,-153.0014 831.4848,-153.0014 831.4848,-94.1986 1089.9438,-94.1986 1089.9438,-153.0014"/>
<text text-anchor="middle" x="960.7143" y="-136.2" font-family="Times,serif" font-size="14.00" fill="#000000">swift-clocks</text>
<text text-anchor="middle" x="960.7143" y="-119.4" font-family="Times,serif" font-size="14.00" fill="#000000">https://github.com/pointfreeco/swift-clocks</text>
<text text-anchor="middle" x="960.7143" y="-102.6" font-family="Times,serif" font-size="14.00" fill="#000000">1.0.5</text>
</g>
<!-- https://github.com/pointfreeco/swift&#45;dependencies&#45;&gt;https://github.com/pointfreeco/swift&#45;clocks -->
<g id="edge14" class="edge">
<title>https://github.com/pointfreeco/swift-dependencies-&gt;https://github.com/pointfreeco/swift-clocks</title>
<path fill="none" stroke="#000000" d="M966.916,-188.6487C966.1456,-180.5682 965.2972,-171.6692 964.4817,-163.1162"/>
<polygon fill="#000000" stroke="#000000" points="967.9443,-162.5558 963.5109,-152.9331 960.9759,-163.2202 967.9443,-162.5558"/>
</g>
<!-- https://github.com/pointfreeco/swift&#45;clocks&#45;&gt;https://github.com/pointfreeco/swift&#45;concurrency&#45;extras -->
<g id="edge15" class="edge">
<title>https://github.com/pointfreeco/swift-clocks-&gt;https://github.com/pointfreeco/swift-concurrency-extras</title>
<path fill="none" stroke="#000000" d="M900.3505,-94.3777C879.7916,-84.4251 856.6427,-73.2187 835.4128,-62.9412"/>
<polygon fill="#000000" stroke="#000000" points="836.6544,-59.6538 826.1286,-58.4467 833.6043,-65.9543 836.6544,-59.6538"/>
</g>
<!-- https://github.com/pointfreeco/swift&#45;clocks&#45;&gt;https://github.com/pointfreeco/xctest&#45;dynamic&#45;overlay -->
<g id="edge16" class="edge">
<title>https://github.com/pointfreeco/swift-clocks-&gt;https://github.com/pointfreeco/xctest-dynamic-overlay</title>
<path fill="none" stroke="#000000" d="M1032.8413,-94.3777C1057.9574,-84.2019 1086.3085,-72.7155 1112.1363,-62.2513"/>
<polygon fill="#000000" stroke="#000000" points="1113.5731,-65.4457 1121.527,-58.4467 1110.9445,-58.9579 1113.5731,-65.4457"/>
</g>
<!-- https://github.com/pointfreeco/swift&#45;identified&#45;collections&#45;&gt;https://github.com/apple/swift&#45;collections -->
<g id="edge21" class="edge">
<title>https://github.com/pointfreeco/swift-identified-collections-&gt;https://github.com/apple/swift-collections</title>
<path fill="none" stroke="#000000" d="M196.832,-188.6487C204.7334,-179.769 213.5143,-169.901 221.7997,-160.5897"/>
<polygon fill="#000000" stroke="#000000" points="224.5799,-162.7304 228.6128,-152.9331 219.3505,-158.0771 224.5799,-162.7304"/>
</g>
<!-- https://github.com/pointfreeco/swift&#45;navigation&#45;&gt;https://github.com/apple/swift&#45;collections -->
<g id="edge23" class="edge">
<title>https://github.com/pointfreeco/swift-navigation-&gt;https://github.com/apple/swift-collections</title>
<path fill="none" stroke="#000000" d="M1183.9472,-195.4611C1165.0771,-192.9307 1145.9489,-190.6154 1127.7143,-188.8 817.2828,-157.8941 736.8039,-186.9656 426.7143,-152.8 414.5989,-151.4651 402.0423,-149.8284 389.4825,-148.0177"/>
<polygon fill="#000000" stroke="#000000" points="389.8217,-144.5299 379.4175,-146.5306 388.7986,-151.4547 389.8217,-144.5299"/>
</g>
<!-- https://github.com/pointfreeco/swift&#45;navigation&#45;&gt;https://github.com/pointfreeco/swift&#45;concurrency&#45;extras -->
<g id="edge25" class="edge">
<title>https://github.com/pointfreeco/swift-navigation-&gt;https://github.com/pointfreeco/swift-concurrency-extras</title>
<path fill="none" stroke="#000000" d="M1184.0818,-196.6355C1165.1461,-193.911 1145.9646,-191.2291 1127.7143,-188.8 1060.0626,-179.7957 877.9374,-192.9029 822.7143,-152.8 815.1991,-147.3425 795.4163,-101.971 781.2683,-67.769"/>
<polygon fill="#000000" stroke="#000000" points="784.4813,-66.3794 777.4422,-58.461 778.007,-69.0408 784.4813,-66.3794"/>
</g>
<!-- https://github.com/pointfreeco/swift&#45;navigation&#45;&gt;https://github.com/pointfreeco/xctest&#45;dynamic&#45;overlay -->
<g id="edge30" class="edge">
<title>https://github.com/pointfreeco/swift-navigation-&gt;https://github.com/pointfreeco/xctest-dynamic-overlay</title>
<path fill="none" stroke="#000000" d="M1285.2542,-188.5501C1273.1287,-178.1858 1260.4326,-165.8441 1250.7143,-152.8 1231.4357,-126.9239 1216.5058,-93.485 1206.7706,-67.9141"/>
<polygon fill="#000000" stroke="#000000" points="1210.0508,-66.6932 1203.2956,-58.5312 1203.4865,-69.1243 1210.0508,-66.6932"/>
</g>
<!-- https://github.com/pointfreeco/swift&#45;navigation&#45;&gt;https://github.com/pointfreeco/swift&#45;case&#45;paths -->
<g id="edge24" class="edge">
<title>https://github.com/pointfreeco/swift-navigation-&gt;https://github.com/pointfreeco/swift-case-paths</title>
<path fill="none" stroke="#000000" d="M1465.4353,-204.0336C1572.9246,-192.6825 1724.9171,-175.1653 1867.162,-153.0054"/>
<polygon fill="#000000" stroke="#000000" points="1868.0492,-156.4091 1877.3861,-151.4019 1866.9645,-149.4936 1868.0492,-156.4091"/>
</g>
<!-- https://github.com/pointfreeco/swift&#45;navigation&#45;&gt;https://github.com/pointfreeco/swift&#45;custom&#45;dump -->
<g id="edge26" class="edge">
<title>https://github.com/pointfreeco/swift-navigation-&gt;https://github.com/pointfreeco/swift-custom-dump</title>
<path fill="none" stroke="#000000" d="M1351.1429,-188.6487C1359.1384,-179.769 1368.0238,-169.901 1376.4079,-160.5897"/>
<polygon fill="#000000" stroke="#000000" points="1379.2116,-162.7065 1383.302,-152.9331 1374.0096,-158.0225 1379.2116,-162.7065"/>
</g>
<!-- https://github.com/pointfreeco/swift&#45;navigation&#45;&gt;https://github.com/pointfreeco/swift&#45;perception -->
<g id="edge27" class="edge">
<title>https://github.com/pointfreeco/swift-navigation-&gt;https://github.com/pointfreeco/swift-perception</title>
<path fill="none" stroke="#000000" d="M1446.6801,-188.7777C1491.107,-178.1333 1541.5197,-166.0548 1586.7729,-155.2124"/>
<polygon fill="#000000" stroke="#000000" points="1587.7373,-158.5804 1596.6465,-152.8467 1586.1062,-151.7731 1587.7373,-158.5804"/>
</g>
<!-- https://github.com/pointfreeco/swift&#45;perception&#45;&gt;https://github.com/pointfreeco/xctest&#45;dynamic&#45;overlay -->
<g id="edge29" class="edge">
<title>https://github.com/pointfreeco/swift-perception-&gt;https://github.com/pointfreeco/xctest-dynamic-overlay</title>
<path fill="none" stroke="#000000" d="M1577.8061,-96.0843C1574.7484,-95.5149 1571.7148,-94.9528 1568.7143,-94.4 1502.2467,-82.1535 1429.0325,-69.2853 1365.0721,-58.247"/>
<polygon fill="#000000" stroke="#000000" points="1365.338,-54.7413 1354.8888,-56.4916 1364.1488,-61.6396 1365.338,-54.7413"/>
</g>
<!-- https://github.com/pointfreeco/swift&#45;perception&#45;&gt;https://github.com/swiftlang/swift&#45;syntax -->
<g id="edge28" class="edge">
<title>https://github.com/pointfreeco/swift-perception-&gt;https://github.com/swiftlang/swift-syntax</title>
<path fill="none" stroke="#000000" d="M1765.0421,-94.2487C1780.1789,-84.6587 1797.1354,-73.9158 1812.8392,-63.9665"/>
<polygon fill="#000000" stroke="#000000" points="1814.841,-66.8416 1821.4152,-58.5331 1811.0947,-60.9285 1814.841,-66.8416"/>
</g>
</g>
</svg>